<!DOCTYPE svg PUBLIC "-//W3C//DTD SVG 1.1//EN" "http://www.w3.org/Graphics/SVG/1.1/DTD/svg11.dtd">
<!-- Uploaded to: SVG Repo, www.svgrepo.com, Transformed by: SVG Repo Mixer Tools -->
<svg width="256px" height="256px" viewBox="-19.2 -19.2 230.40 230.40" xmlns="http://www.w3.org/2000/svg" style="enable-background:new 0 0 192 192" xml:space="preserve" fill="#000000" transform="rotate(0)">
<g id="SVGRepo_bgCarrier" stroke-width="0" transform="translate(0,0), scale(1)">
<rect x="-19.2" y="-19.2" width="230.40" height="230.40" rx="115.2" fill="#cdb8ff" strokewidth="0"/>
</g>
<g id="SVGRepo_tracerCarrier" stroke-linecap="round" stroke-linejoin="round" stroke="#ad5858" stroke-width="1.152"/>
<g id="SVGRepo_iconCarrier">
<path d="M104.1 65.7v88.5c6.1-6.3 18.3-17.2 37-23.4 11.5-3.8 21.6-4.6 28.9-4.5V37.8c-8 .5-18.7 2.1-30.7 6.5-16.5 6.2-28.2 15.1-35.2 21.4zm-16.2 0v88.5c-6.1-6.3-18.3-17.2-37-23.4-11.5-3.8-21.6-4.6-28.9-4.5V37.8c8 .5 18.7 2.1 30.7 6.5 16.5 6.2 28.2 15.1 35.2 21.4z" style="fill:none;stroke:#000000;stroke-width:12.48;stroke-linejoin:round;stroke-miterlimit:10"/>
</g>
</svg>